# xmcd
#
# Track frame offsets:
#	150
#	12561
#	24980
#	36235
#	48434
#	64454
#	77910
#	92380
#	103761
#	115003
#	132179
#	144618
#	155989
#	170461
#	179231
#	196098
#	207931
#	217865
#	232805
#	247582
#	260507
#	280097
#
# Disc length: 3976 seconds
#
# Revision: 1
# Processed by: cddbd v1.5.2PL0 Copyright (c) Steve Scherf et al.
# Submitted via: audiograbber 1.83.01
#
DISCID=340f8616
DTITLE=Various Artist - Country Gold (Reader's Digest) [Disc 1]
DYEAR=2013
DGENRE=Country
TTITLE0=Dolly Parton - 9 To 5
TTITLE1=Johnny Cash - I Walk The Line
TTITLE2=Don Gibson - Oh Lonesome Me
TTITLE3=Tammy Wynette - Stand By Your Man
TTITLE4=Willie Nelson - Always On My Mind
TTITLE5=Mickey Gilley - Room Full Of Roses
TTITLE6=The Bellamy Brothers - Let Your Love Flow
TTITLE7=The Kendalls - Heaven's Just A Sin Away
TTITLE8=Conway Twitty - It's Only Make Believe
TTITLE9=Ray Price - For The Good Times
TTITLE10=Patsy Cline - A Poor Man's Roses (Or A Rich Man's Gold)
TTITLE11=Marty Robbins - A White Sport Coat (And A Pink Carnation)
TTITLE12=Don Williams - Amanda
TTITLE13=Roger Miller - England Swings
TTITLE14=The Oak Ridge Boys - Elvira
TTITLE15=Donna Fargo - The Happiest Girl In The Whole USA
TTITLE16=Merle Haggard - Mama Tried
TTITLE17=Jerry Wallace - Don't Give Up On Me
TTITLE18=B.J. Thomas - I'm So Lonesome I Could Cry
TTITLE19=Bill Anderson - Still
TTITLE20=Kenny Rogers - She Believes In Me
TTITLE21=John Denver - Leaving On A Jet Plane
EXTD=
EXTT0=
EXTT1=
EXTT2=
EXTT3=
EXTT4=
EXTT5=
EXTT6=
EXTT7=
EXTT8=
EXTT9=
EXTT10=
EXTT11=
EXTT12=
EXTT13=
EXTT14=
EXTT15=
EXTT16=
EXTT17=
EXTT18=
EXTT19=
EXTT20=
EXTT21=
PLAYORDER=
